<svg width="13" height="15" viewBox="0 0 13 15" fill="none" xmlns="http://www.w3.org/2000/svg">
<path d="M1.27985 7.60903L6.58385 2.30503C6.83927 2.04968 7.14248 1.84713 7.47618 1.70896C7.80988 1.57079 8.16753 1.4997 8.5287 1.49974C8.88987 1.49979 9.2475 1.57097 9.58116 1.70923C9.91483 1.84749 10.218 2.05011 10.4733 2.30553C10.7287 2.56096 10.9312 2.86417 11.0694 3.19787C11.2076 3.53157 11.2787 3.88921 11.2786 4.25039C11.2786 4.61156 11.2074 4.96919 11.0691 5.30285C10.9309 5.63651 10.7283 5.93968 10.4728 6.19503L4.10885 12.559C3.87426 12.7936 3.5561 12.9254 3.22435 12.9254C2.89259 12.9254 2.57443 12.7936 2.33985 12.559C2.10526 12.3245 1.97347 12.0063 1.97347 11.6745C1.97347 11.3428 2.10526 11.0246 2.33985 10.79L7.99685 5.13303C8.12933 4.99086 8.20145 4.80281 8.19802 4.60851C8.19459 4.41421 8.11588 4.22883 7.97847 4.09141C7.84105 3.954 7.65567 3.87529 7.46137 3.87186C7.26707 3.86843 7.07902 3.94055 6.93685 4.07303L1.27985 9.73003C0.764001 10.2459 0.474201 10.9455 0.474201 11.675C0.474201 12.4046 0.764001 13.1042 1.27985 13.62C1.79569 14.1359 2.49533 14.4257 3.22485 14.4257C3.95436 14.4257 4.654 14.1359 5.16985 13.62L11.5328 7.25503C12.3145 6.45491 12.7493 5.37886 12.7428 4.26029C12.7363 3.14171 12.289 2.0708 11.4981 1.27983C10.7071 0.488863 9.63617 0.0416203 8.5176 0.0351063C7.39902 0.0285924 6.32297 0.463333 5.52285 1.24503L0.219846 6.54803C0.0873663 6.69021 0.0152433 6.87826 0.0186715 7.07256C0.0220998 7.26686 0.100812 7.45224 0.238225 7.58966C0.375638 7.72707 0.561023 7.80578 0.755324 7.80921C0.949625 7.81264 1.13767 7.74051 1.27985 7.60803V7.60903Z" fill="#0089ED"/>
</svg>
