<svg width="10" height="7" viewBox="0 0 10 7" fill="none" xmlns="http://www.w3.org/2000/svg">
<path d="M0.226914 0.969743C0.36756 0.829139 0.558291 0.750153 0.757164 0.750153C0.956037 0.750153 1.14677 0.829139 1.28741 0.969743L4.99991 4.68224L8.71241 0.969743C8.85387 0.833124 9.04332 0.757528 9.23997 0.759237C9.43661 0.760946 9.62472 0.839822 9.76378 0.978879C9.90283 1.11793 9.98171 1.30604 9.98342 1.50269C9.98513 1.69934 9.90953 1.88879 9.77291 2.03024L5.53016 6.27299C5.38952 6.4136 5.19879 6.49258 4.99991 6.49258C4.80104 6.49258 4.61031 6.4136 4.46966 6.27299L0.226914 2.03024C0.0863108 1.8896 0.00732422 1.69887 0.00732422 1.49999C0.00732422 1.30112 0.0863108 1.11039 0.226914 0.969743Z" fill="black"/>
</svg>
