<svg width="13" height="21" viewBox="0 0 13 21" fill="none" xmlns="http://www.w3.org/2000/svg">
<path d="M1.18622 19.6906C0.90816 19.4125 0.751953 19.0353 0.751953 18.642C0.751953 18.2487 0.90816 17.8715 1.18622 17.5934L8.52817 10.2514L1.18622 2.90946C0.91604 2.62972 0.766539 2.25505 0.769918 1.86616C0.773298 1.47726 0.929287 1.10525 1.20429 0.830248C1.47929 0.555244 1.8513 0.399258 2.2402 0.395878C2.62909 0.3925 3.00376 0.542 3.2835 0.812181L11.6741 9.20277C11.9522 9.48092 12.1084 9.85811 12.1084 10.2514C12.1084 10.6447 11.9522 11.0219 11.6741 11.3L3.2835 19.6906C3.00535 19.9687 2.62816 20.1249 2.23486 20.1249C1.84156 20.1249 1.46437 19.9687 1.18622 19.6906Z" fill="white"/>
</svg>
