<svg width="10" height="5" viewBox="0 0 10 5" fill="none" xmlns="http://www.w3.org/2000/svg">
<path d="M1.02284 0.308114C1.14004 0.190944 1.29898 0.125122 1.46471 0.125122C1.63044 0.125122 1.78938 0.190944 1.90659 0.308114L5.00034 3.40186L8.09409 0.308114C8.21196 0.194265 8.36984 0.131268 8.53371 0.132692C8.69758 0.134116 8.85434 0.199847 8.97022 0.315727C9.0861 0.431607 9.15183 0.588365 9.15326 0.752238C9.15468 0.916111 9.09168 1.07399 8.97783 1.19186L5.44221 4.72749C5.32501 4.84466 5.16606 4.91048 5.00034 4.91048C4.83461 4.91048 4.67567 4.84466 4.55846 4.72749L1.02284 1.19186C0.905666 1.07466 0.839844 0.915716 0.839844 0.749989C0.839844 0.584261 0.905666 0.425319 1.02284 0.308114Z" fill="#818BBD"/>
</svg>
