<svg width="12" height="11" viewBox="0 0 12 11" fill="none" xmlns="http://www.w3.org/2000/svg">
<path fill-rule="evenodd" clip-rule="evenodd" d="M2.85392 0.146009C2.90048 0.192454 2.93742 0.24763 2.96263 0.308375C2.98784 0.36912 3.00081 0.434242 3.00081 0.500009C3.00081 0.565776 2.98784 0.630897 2.96263 0.691643C2.93742 0.752388 2.90048 0.807563 2.85392 0.854009L1.70692 2.00001H6.99992C8.19339 2.00001 9.33798 2.47411 10.1819 3.31803C11.0258 4.16194 11.4999 5.30653 11.4999 6.50001C11.4999 7.69348 11.0258 8.83807 10.1819 9.68199C9.33798 10.5259 8.19339 11 6.99992 11H2.99992C2.86731 11 2.74013 10.9473 2.64636 10.8536C2.5526 10.7598 2.49992 10.6326 2.49992 10.5C2.49992 10.3674 2.5526 10.2402 2.64636 10.1465C2.74013 10.0527 2.86731 10 2.99992 10H6.99992C7.92817 10 8.81841 9.63126 9.47479 8.97488C10.1312 8.3185 10.4999 7.42827 10.4999 6.50001C10.4999 5.57175 10.1312 4.68151 9.47479 4.02514C8.81841 3.36876 7.92817 3.00001 6.99992 3.00001H1.70692L2.85392 4.14601C2.90041 4.1925 2.93728 4.24769 2.96244 4.30842C2.9876 4.36916 3.00055 4.43426 3.00055 4.50001C3.00055 4.56575 2.9876 4.63085 2.96244 4.69159C2.93728 4.75233 2.90041 4.80752 2.85392 4.85401C2.80743 4.9005 2.75224 4.93737 2.6915 4.96253C2.63076 4.98769 2.56566 5.00064 2.49992 5.00064C2.43417 5.00064 2.36907 4.98769 2.30833 4.96253C2.24759 4.93737 2.19241 4.9005 2.14592 4.85401L0.145917 2.85401C0.0993539 2.80756 0.0624112 2.75239 0.0372047 2.69164C0.0119983 2.6309 -0.000976562 2.56578 -0.000976562 2.50001C-0.000976562 2.43424 0.0119983 2.36912 0.0372047 2.30838C0.0624112 2.24763 0.0993539 2.19245 0.145917 2.14601L2.14592 0.146009C2.19236 0.0994455 2.24754 0.0625027 2.30828 0.0372963C2.36903 0.0120898 2.43415 -0.00088501 2.49992 -0.00088501C2.56568 -0.00088501 2.63081 0.0120898 2.69155 0.0372963C2.7523 0.0625027 2.80747 0.0994455 2.85392 0.146009Z" fill="#828282"/>
</svg>
