<svg width="7" height="15" viewBox="0 0 7 15" fill="none" xmlns="http://www.w3.org/2000/svg">
<path d="M7.00125 7.00125C7.00171 6.7676 6.92033 6.54116 6.77125 6.36125L1.77125 0.361252C1.60151 0.157036 1.3576 0.0286112 1.09318 0.0042315C0.82875 -0.0201482 0.565469 0.0615137 0.361252 0.231252C0.157035 0.400991 0.0286112 0.644902 0.00423152 0.909329C-0.0201482 1.17375 0.0615132 1.43704 0.231252 1.64125L4.71125 7.00125L0.391253 12.3613C0.308187 12.4635 0.246155 12.5812 0.208723 12.7076C0.171291 12.8339 0.159198 12.9664 0.173137 13.0974C0.187076 13.2285 0.226773 13.3554 0.289947 13.4711C0.35312 13.5867 0.438526 13.6887 0.541252 13.7713C0.644074 13.8628 0.7647 13.9322 0.895574 13.975C1.02645 14.0178 1.16475 14.0331 1.30181 14.0199C1.43887 14.0068 1.57175 13.9655 1.6921 13.8986C1.81246 13.8317 1.91771 13.7407 2.00125 13.6313L6.83125 7.63125C6.95677 7.44617 7.01662 7.22435 7.00125 7.00125Z" fill="#FF068C"/>
</svg>
