<svg width="12" height="22" viewBox="0 0 12 22" fill="none" xmlns="http://www.w3.org/2000/svg">
<path d="M11.5032 20.6266C11.7813 20.3394 11.9375 19.9501 11.9375 19.5441C11.9375 19.1381 11.7813 18.7487 11.5032 18.4616L4.16128 10.8828L11.5032 3.30404C11.7734 3.01528 11.9229 2.62852 11.9195 2.22708C11.9162 1.82564 11.7602 1.44163 11.4852 1.15776C11.2102 0.873886 10.8382 0.712866 10.4493 0.709379C10.0604 0.705891 9.68569 0.860212 9.40596 1.13911L1.01536 9.80037C0.737302 10.0875 0.581096 10.4768 0.581096 10.8828C0.581096 11.2888 0.737302 11.6782 1.01536 11.9653L9.40596 20.6266C9.6841 20.9136 10.0613 21.0748 10.4546 21.0748C10.8479 21.0748 11.2251 20.9136 11.5032 20.6266Z" fill="white"/>
</svg>
