<svg width="40" height="40" viewBox="0 0 40 40" fill="none" xmlns="http://www.w3.org/2000/svg">
<path d="M20.0003 25.3334C22.9458 25.3334 25.3337 22.9455 25.3337 20C25.3337 17.0545 22.9458 14.6667 20.0003 14.6667C17.0548 14.6667 14.667 17.0545 14.667 20C14.667 22.9455 17.0548 25.3334 20.0003 25.3334Z" fill="white"/>
<path d="M14.9997 3.33331L11.9497 6.66665H6.66634C4.83301 6.66665 3.33301 8.16665 3.33301 9.99998V30C3.33301 31.8333 4.83301 33.3333 6.66634 33.3333H33.333C35.1663 33.3333 36.6663 31.8333 36.6663 30V9.99998C36.6663 8.16665 35.1663 6.66665 33.333 6.66665H28.0497L24.9997 3.33331H14.9997ZM19.9997 28.3333C15.3997 28.3333 11.6663 24.6 11.6663 20C11.6663 15.4 15.3997 11.6666 19.9997 11.6666C24.5997 11.6666 28.333 15.4 28.333 20C28.333 24.6 24.5997 28.3333 19.9997 28.3333Z" fill="white"/>
</svg>
