<svg width="25" height="25" viewBox="0 0 25 25" fill="none" xmlns="http://www.w3.org/2000/svg">
<path fill-rule="evenodd" clip-rule="evenodd" d="M24.2041 3.02069C24.3502 2.87478 24.4662 2.70152 24.5453 2.51081C24.6244 2.3201 24.6652 2.11567 24.6653 1.90919C24.6655 1.70272 24.6249 1.49824 24.546 1.30743C24.4671 1.11662 24.3514 0.943217 24.2055 0.797126C24.0596 0.651035 23.8863 0.535114 23.6956 0.455981C23.5049 0.376849 23.3005 0.336054 23.094 0.335927C22.8875 0.3358 22.6831 0.376344 22.4922 0.455242C22.3014 0.53414 22.128 0.649848 21.9819 0.795759L12.5 10.2777L3.02082 0.795759C2.72577 0.500715 2.3256 0.334961 1.90835 0.334961C1.49109 0.334961 1.09093 0.500715 0.795882 0.795759C0.500837 1.0908 0.335083 1.49097 0.335083 1.90823C0.335083 2.32548 0.500837 2.72565 0.795882 3.02069L10.2778 12.4999L0.795882 21.9791C0.64979 22.1252 0.533904 22.2986 0.45484 22.4895C0.375776 22.6804 0.335083 22.885 0.335083 23.0916C0.335083 23.2982 0.375776 23.5027 0.45484 23.6936C0.533904 23.8845 0.64979 24.0579 0.795882 24.204C1.09093 24.4991 1.49109 24.6648 1.90835 24.6648C2.11495 24.6648 2.31953 24.6241 2.51041 24.5451C2.70129 24.466 2.87472 24.3501 3.02082 24.204L12.5 14.7221L21.9819 24.204C22.277 24.4987 22.677 24.6641 23.094 24.6639C23.511 24.6636 23.9108 24.4977 24.2055 24.2027C24.5002 23.9076 24.6656 23.5076 24.6653 23.0906C24.6651 22.6736 24.4992 22.2738 24.2041 21.9791L14.7222 12.4999L24.2041 3.02069Z" fill="#828BBD"/>
</svg>
