<svg width="20" height="18" viewBox="0 0 20 18" fill="none" xmlns="http://www.w3.org/2000/svg">
<path d="M5.62564 7.125C4.93423 7.125 4.37564 7.68359 4.37564 8.375C4.37564 9.06641 4.93423 9.625 5.62564 9.625C6.31705 9.625 6.87564 9.06641 6.87564 8.375C6.87564 7.68359 6.31705 7.125 5.62564 7.125ZM10.0006 7.125C9.30923 7.125 8.75064 7.68359 8.75064 8.375C8.75064 9.06641 9.30923 9.625 10.0006 9.625C10.692 9.625 11.2506 9.06641 11.2506 8.375C11.2506 7.68359 10.692 7.125 10.0006 7.125ZM14.3756 7.125C13.6842 7.125 13.1256 7.68359 13.1256 8.375C13.1256 9.06641 13.6842 9.625 14.3756 9.625C15.067 9.625 15.6256 9.06641 15.6256 8.375C15.6256 7.68359 15.067 7.125 14.3756 7.125ZM10.0006 0.25C4.4772 0.25 0.000639383 3.88672 0.000639383 8.375C0.000639383 10.2344 0.777983 11.9375 2.06705 13.3086C1.48501 14.8477 0.274077 16.1523 0.254546 16.168C-0.00326687 16.4414 -0.0735794 16.8398 0.0748581 17.1836C0.223296 17.5273 0.563139 17.75 0.938139 17.75C3.34048 17.75 5.23501 16.7461 6.37173 15.9414C7.50064 16.2969 8.71939 16.5 10.0006 16.5C15.5241 16.5 20.0006 12.8633 20.0006 8.375C20.0006 3.88672 15.5241 0.25 10.0006 0.25ZM10.0006 14.625C8.95767 14.625 7.92642 14.4648 6.93814 14.1523L6.05142 13.8711L5.2897 14.4102C4.73111 14.8047 3.96548 15.2461 3.04361 15.543C3.32876 15.0703 3.60611 14.5391 3.82095 13.9727L4.23501 12.875L3.43033 12.0234C2.7233 11.2695 1.87564 10.0234 1.87564 8.375C1.87564 4.92969 5.52017 2.125 10.0006 2.125C14.4811 2.125 18.1256 4.92969 18.1256 8.375C18.1256 11.8203 14.4811 14.625 10.0006 14.625Z" fill="#828BBD"/>
</svg>
