<svg width="14" height="11" viewBox="0 0 14 11" fill="none" xmlns="http://www.w3.org/2000/svg">
<path d="M11.8263 0.386883C12.0552 0.16057 12.3599 0.0354557 12.6759 0.0379391C12.992 0.0404225 13.2947 0.17031 13.5203 0.400193C13.7459 0.630077 13.8767 0.941976 13.885 1.27008C13.8934 1.59818 13.7786 1.91682 13.5651 2.15876L7.08132 10.5794C6.96983 10.7041 6.83527 10.8042 6.68569 10.8736C6.5361 10.9431 6.37456 10.9805 6.21073 10.9837C6.0469 10.9868 5.88414 10.9556 5.73218 10.892C5.58022 10.8283 5.44218 10.7335 5.32632 10.6131L1.02657 6.14801C0.906832 6.03214 0.810791 5.89242 0.744179 5.73717C0.677567 5.58192 0.641749 5.41433 0.638862 5.24439C0.635974 5.07445 0.666077 4.90565 0.727374 4.74806C0.78867 4.59047 0.879905 4.44731 0.995636 4.32713C1.11137 4.20695 1.24922 4.11221 1.40098 4.04855C1.55273 3.9849 1.71528 3.95364 1.87892 3.95663C2.04256 3.95963 2.20395 3.99683 2.35345 4.066C2.50295 4.13518 2.6375 4.23491 2.74907 4.35926L6.15182 7.8912L11.7954 0.424008C11.8056 0.411016 11.8165 0.398621 11.8279 0.386883H11.8263Z" fill="url(#paint0_linear_918_1490)"/>
<defs>
<linearGradient id="paint0_linear_918_1490" x1="-5.12079" y1="-5.34072" x2="15.7642" y2="-4.08192" gradientUnits="userSpaceOnUse">
<stop stop-color="#FF8A00"/>
<stop offset="1" stop-color="#FF007A"/>
</linearGradient>
</defs>
</svg>
