<svg width="10" height="18" viewBox="0 0 10 18" fill="none" xmlns="http://www.w3.org/2000/svg">
<path d="M5 17.3333C3.70757 17.3647 2.45544 16.8823 1.51816 15.9918C0.580872 15.1014 0.0349182 13.8757 0 12.5833V4.10833C0.0240284 3.17408 0.417204 2.28741 1.09347 1.64238C1.76973 0.997352 2.674 0.646515 3.60833 0.666661C4.5441 0.644277 5.45051 0.994116 6.12858 1.63938C6.80666 2.28465 7.20098 3.17261 7.225 4.10833V12.5917C7.19034 13.1571 6.94128 13.6881 6.5286 14.0763C6.11592 14.4644 5.57071 14.6806 5.00417 14.6806C4.43762 14.6806 3.89241 14.4644 3.47973 14.0763C3.06705 13.6881 2.81799 13.1571 2.78333 12.5917V4.76666C2.78333 4.54565 2.87113 4.33369 3.02741 4.17741C3.18369 4.02113 3.39565 3.93333 3.61667 3.93333C3.83768 3.93333 4.04964 4.02113 4.20592 4.17741C4.3622 4.33369 4.45 4.54565 4.45 4.76666V12.5917C4.46662 12.7269 4.53214 12.8515 4.63422 12.9418C4.7363 13.0321 4.86788 13.0819 5.00417 13.0819C5.14046 13.0819 5.27204 13.0321 5.37411 12.9418C5.47619 12.8515 5.54171 12.7269 5.55833 12.5917V4.10833C5.53243 3.61534 5.31314 3.15245 4.94806 2.82014C4.58299 2.48783 4.10158 2.3129 3.60833 2.33333C3.11649 2.31515 2.63723 2.49108 2.27397 2.82316C1.91071 3.15524 1.69258 3.61684 1.66667 4.10833V12.5833C1.70136 13.4337 2.07164 14.2357 2.69641 14.8136C3.32118 15.3915 4.14952 15.6982 5 15.6667C5.85048 15.6982 6.67882 15.3915 7.30359 14.8136C7.92836 14.2357 8.29864 13.4337 8.33333 12.5833V4.10833C8.33333 3.88731 8.42113 3.67535 8.57741 3.51907C8.73369 3.36279 8.94565 3.27499 9.16667 3.27499C9.38768 3.27499 9.59964 3.36279 9.75592 3.51907C9.9122 3.67535 10 3.88731 10 4.10833V12.5833C9.96508 13.8757 9.41913 15.1014 8.48184 15.9918C7.54455 16.8823 6.29243 17.3647 5 17.3333Z" fill="#B3B3B3"/>
</svg>
