<svg width="31" height="28" viewBox="0 0 31 28" fill="none" xmlns="http://www.w3.org/2000/svg">
<path d="M29.5479 5.97034C29.0897 4.87922 28.4291 3.89045 27.603 3.0594C26.7763 2.22587 25.8016 1.56347 24.7319 1.10823C23.6227 0.634297 22.433 0.391712 21.2319 0.394556C19.5469 0.394556 17.9028 0.869165 16.4741 1.76565C16.1323 1.9801 15.8076 2.21565 15.5 2.47229C15.1924 2.21565 14.8677 1.9801 14.5259 1.76565C13.0972 0.869165 11.4531 0.394556 9.76807 0.394556C8.55469 0.394556 7.37891 0.633619 6.26807 1.10823C5.19482 1.56526 4.22754 2.22268 3.39697 3.0594C2.56981 3.88952 1.90906 4.87851 1.45215 5.97034C0.977051 7.10589 0.734375 8.31174 0.734375 9.55276C0.734375 10.7235 0.966797 11.9434 1.42822 13.1844C1.81445 14.2215 2.36816 15.2973 3.07568 16.3836C4.19678 18.1028 5.73828 19.8957 7.65234 21.7133C10.8242 24.7262 13.9653 26.8075 14.0986 26.8918L14.9087 27.4262C15.2676 27.6617 15.729 27.6617 16.0879 27.4262L16.898 26.8918C17.0313 26.8039 20.1689 24.7262 23.3442 21.7133C25.2583 19.8957 26.7998 18.1028 27.9209 16.3836C28.6284 15.2973 29.1855 14.2215 29.5684 13.1844C30.0298 11.9434 30.2622 10.7235 30.2622 9.55276C30.2656 8.31174 30.023 7.10589 29.5479 5.97034ZM15.5 24.6453C15.5 24.6453 3.33203 16.6262 3.33203 9.55276C3.33203 5.97034 6.21338 3.06643 9.76807 3.06643C12.2666 3.06643 14.4336 4.50081 15.5 6.59612C16.5664 4.50081 18.7334 3.06643 21.2319 3.06643C24.7866 3.06643 27.668 5.97034 27.668 9.55276C27.668 16.6262 15.5 24.6453 15.5 24.6453Z" fill="url(#paint0_linear_721_662)"/>
<defs>
<linearGradient id="paint0_linear_721_662" x1="-12.1038" y1="-12.9751" x2="34.4832" y2="-10.457" gradientUnits="userSpaceOnUse">
<stop stop-color="#FF8A00"/>
<stop offset="1" stop-color="#FF007A"/>
</linearGradient>
</defs>
</svg>
