<svg width="19" height="20" viewBox="0 0 19 20" fill="none" xmlns="http://www.w3.org/2000/svg">
<path d="M4.42738 17.656C4.42738 17.3287 4.42738 17.0014 4.42738 16.6741C4.42971 16.6607 4.42924 16.647 4.42599 16.6338C4.42275 16.6206 4.41681 16.6082 4.40854 16.5974C4.40026 16.5865 4.38983 16.5775 4.37789 16.5708C4.36595 16.5641 4.35275 16.56 4.33911 16.5585C3.51964 16.3281 2.76327 15.9175 2.12638 15.3574C1.66234 14.9395 1.27597 14.4443 0.984862 13.8941C0.574546 13.0995 0.301476 12.2425 0.176971 11.3586C0.0227078 10.2499 -0.0308673 9.12966 0.0168882 8.01144C0.0273609 7.49012 0.0542906 6.97471 0.114134 6.45339C0.209574 5.46271 0.462015 4.49309 0.862182 3.58016C1.35631 2.45768 2.25274 1.55603 3.37862 1.04906C4.14557 0.70162 4.95242 0.447974 5.78135 0.293727C6.59424 0.141303 7.41728 0.0477492 8.24392 0.0138097C8.98906 -0.0122759 9.73505 -0.00140125 10.4791 0.0463926C11.544 0.0908898 12.5993 0.265495 13.6209 0.566239C14.3784 0.782393 15.099 1.10936 15.7588 1.53632C16.4017 1.97325 16.9218 2.56499 17.2699 3.25581C17.6791 4.06267 17.9573 4.92835 18.0942 5.82098C18.1832 6.35094 18.2416 6.88547 18.2693 7.42199C18.3082 8.08698 18.3037 8.75493 18.2782 9.41695C18.2528 10.079 18.1959 10.7218 18.1137 11.3705C18.0097 12.3441 17.7073 13.2867 17.225 14.1415C16.5971 15.2227 15.5914 16.0393 14.3974 16.4371C13.5809 16.7201 12.7379 16.9216 11.8809 17.0384C11.2541 17.1243 10.6257 17.1865 9.99435 17.2117C9.51111 17.2339 9.02787 17.228 8.54463 17.2206C8.27085 17.2206 7.99856 17.1939 7.72627 17.1702C7.69954 17.1652 7.67191 17.1682 7.64688 17.1787C7.62185 17.1893 7.60054 17.2069 7.58564 17.2295C7.03507 17.8841 6.46357 18.5209 5.88757 19.1548C5.78265 19.2705 5.66117 19.3703 5.52701 19.451C5.43894 19.5082 5.33852 19.5441 5.23386 19.5558C5.1292 19.5675 5.02322 19.5547 4.92449 19.5183C4.82577 19.482 4.73705 19.4232 4.66551 19.3467C4.59397 19.2702 4.54161 19.1781 4.51266 19.0778C4.45564 18.8997 4.42737 18.7137 4.42888 18.5269C4.42738 18.2336 4.42738 17.9448 4.42738 17.656ZM5.09314 18.8986L5.16346 18.8334L6.4127 17.4605C6.89344 16.9323 7.37369 16.4035 7.85344 15.8743C7.87702 15.842 7.90883 15.8165 7.94563 15.8004C7.98243 15.7842 8.02289 15.7781 8.06289 15.7825C8.22597 15.7988 8.38904 15.8047 8.55361 15.8062C9.12213 15.8062 9.69065 15.8062 10.2592 15.7662C10.7753 15.7262 11.29 15.664 11.8016 15.584C12.3525 15.4891 12.8979 15.365 13.4354 15.2123C14.6323 14.8939 15.5583 14.2126 16.1403 13.1092C16.4839 12.4308 16.6994 11.696 16.7762 10.9409C16.8671 10.2293 16.9215 9.51352 16.9392 8.7964C16.9658 7.89554 16.9036 6.99428 16.7537 6.10534C16.6498 5.4613 16.4627 4.83314 16.1972 4.23626C15.859 3.49574 15.3803 2.88259 14.6427 2.48863C13.5117 1.88437 12.2879 1.61482 11.0267 1.47708C10.6691 1.43857 10.3115 1.41784 9.95246 1.40451C9.21725 1.36699 8.48048 1.37094 7.74572 1.41636C7.21731 1.45518 6.69173 1.52541 6.17183 1.62667C5.40725 1.76464 4.6676 2.0142 3.97705 2.36719C3.57672 2.56744 3.21352 2.83334 2.90286 3.15362C2.39937 3.7107 2.03005 4.37355 1.82268 5.09231C1.57667 5.9294 1.44237 6.79477 1.42322 7.66636C1.37508 8.53795 1.38608 9.41175 1.45613 10.2819C1.49972 10.7997 1.5873 11.313 1.71795 11.8162C1.91233 12.6005 2.28943 13.3289 2.81908 13.943C3.39089 14.5696 4.12993 15.0235 4.95101 15.2523C5.05424 15.2834 5.10062 15.3189 5.10062 15.4344C5.09165 15.861 5.10062 16.2875 5.10062 16.7141L5.09314 18.8986Z" fill="#754A91"/>
<path d="M4.04487 5.67019C4.0344 5.34584 4.21243 5.11035 4.42787 4.89857C4.71201 4.62912 5.02506 4.39123 5.36143 4.18915C5.51482 4.0955 5.6972 4.05982 5.87504 4.08866C6.05288 4.11751 6.21423 4.20893 6.32941 4.34614C6.7364 4.76964 7.10068 5.23145 7.41707 5.72499C7.57375 5.947 7.69205 6.19324 7.76716 6.45366C7.79717 6.55529 7.79912 6.66302 7.77281 6.76564C7.7465 6.86827 7.69288 6.96204 7.61755 7.03719C7.44495 7.20491 7.261 7.36078 7.06698 7.50372C6.96922 7.58085 6.89653 7.68473 6.85796 7.80244C6.81939 7.92016 6.81664 8.0465 6.85005 8.16575C6.96987 8.7257 7.24139 9.2428 7.6355 9.6616C8.11439 10.2404 8.73142 10.6919 9.43082 10.9753C9.60267 11.0628 9.79959 11.0894 9.98886 11.0508C10.0925 11.0228 10.1846 10.9632 10.2522 10.8805C10.3569 10.7487 10.4706 10.6213 10.5649 10.4806C10.6871 10.3051 10.8738 10.1838 11.085 10.1426C11.2963 10.1014 11.5155 10.1435 11.6959 10.2599C12.203 10.5512 12.6818 10.8884 13.1262 11.2671C13.2309 11.3559 13.3401 11.4418 13.4448 11.5322C13.5688 11.6257 13.6582 11.7569 13.6996 11.9057C13.7409 12.0544 13.7319 12.2125 13.6737 12.3556C13.5813 12.5963 13.4466 12.819 13.2758 13.0132C13.0635 13.3052 12.7932 13.5512 12.4814 13.736C12.3323 13.8226 12.1648 13.8735 11.9923 13.8846C11.8198 13.8956 11.6471 13.8665 11.4879 13.7996C10.2775 13.3172 9.14649 12.6588 8.1322 11.8461C7.14014 11.0377 6.27316 10.0896 5.55892 9.03216C4.95792 8.15677 4.47979 7.20465 4.13763 6.20188C4.10119 6.0806 4.07123 5.9575 4.04786 5.8331C4.04121 5.77905 4.04021 5.72445 4.04487 5.67019Z" fill="#754A91"/>
<path d="M9.21094 4.0938C10.2237 4.11233 11.1977 4.48214 11.9633 5.13875C12.7288 5.79536 13.2373 6.69712 13.4 7.68681C13.4655 8.04663 13.5006 8.41125 13.5047 8.77686C13.5047 8.86276 13.4823 8.92496 13.3895 8.93385C13.2968 8.94273 13.2728 8.86424 13.2728 8.78574C13.2867 8.04622 13.1334 7.31298 12.824 6.63971C12.5635 6.08649 12.1775 5.60024 11.6962 5.21878C11.2148 4.83732 10.6511 4.57094 10.0488 4.44036C9.7303 4.36737 9.40465 4.32962 9.07779 4.3278C9.04596 4.32834 9.01421 4.32435 8.98353 4.31595C8.95741 4.30866 8.93517 4.29162 8.92149 4.26841C8.90782 4.2452 8.90378 4.21764 8.91022 4.19155C8.91042 4.17916 8.9131 4.16694 8.91811 4.1556C8.92312 4.14425 8.93036 4.13401 8.93941 4.12546C8.94846 4.11692 8.95914 4.11024 8.97083 4.10582C8.98251 4.1014 8.99497 4.09933 9.00747 4.09972C9.07479 4.09083 9.14361 4.0938 9.21094 4.0938Z" fill="#754A91"/>
<path d="M12.1017 8.1103C12.0967 7.69884 11.9943 7.29428 11.8028 6.92905C11.6114 6.56383 11.3361 6.24811 10.9991 6.00722C10.6058 5.73372 10.1485 5.56398 9.67054 5.51403C9.58975 5.50366 9.50896 5.49922 9.42668 5.49033C9.34439 5.48145 9.29502 5.44738 9.3025 5.36445C9.30998 5.28151 9.36235 5.25189 9.45211 5.25781C10.7777 5.33779 11.9057 6.07979 12.2528 7.4616C12.3163 7.72804 12.3479 8.00095 12.3471 8.2747C12.3471 8.29987 12.3471 8.32505 12.3471 8.34875C12.3471 8.4228 12.2992 8.47167 12.2259 8.47019C12.2096 8.46965 12.1936 8.46584 12.1789 8.45898C12.1642 8.45212 12.1511 8.44236 12.1403 8.4303C12.1295 8.41824 12.1213 8.40414 12.1162 8.38884C12.1111 8.37355 12.1092 8.35738 12.1107 8.34134C12.0987 8.27173 12.1017 8.20064 12.1017 8.1103Z" fill="#754A91"/>
<path d="M9.77621 6.46067C10.5033 6.50955 11.0105 6.86203 11.1496 7.62773C11.1665 7.72583 11.1785 7.82468 11.1855 7.92394C11.1855 8.00392 11.1676 8.07205 11.0793 8.07205C10.991 8.07205 10.9611 8.0128 10.9581 7.92394C10.9573 7.63043 10.866 7.34417 10.6963 7.10344C10.518 6.88542 10.2621 6.74336 9.98118 6.70652C9.91837 6.6949 9.85493 6.68698 9.79117 6.68283C9.68645 6.68283 9.6281 6.63099 9.64156 6.55101C9.65503 6.47104 9.71786 6.45623 9.77621 6.46067Z" fill="#754A91"/>
</svg>
