<svg width="21" height="21" viewBox="0 0 21 21" fill="none" xmlns="http://www.w3.org/2000/svg">
<path d="M7.44264 10.1274C7.44264 8.2631 8.95446 6.75138 10.8199 6.75138C12.6853 6.75138 14.1979 8.2631 14.1979 10.1274C14.1979 11.9917 12.6853 13.5034 10.8199 13.5034C8.95446 13.5034 7.44264 11.9917 7.44264 10.1274ZM5.61653 10.1274C5.61653 12.9995 7.94606 15.3276 10.8199 15.3276C13.6937 15.3276 16.0232 12.9995 16.0232 10.1274C16.0232 7.25531 13.6937 4.92717 10.8199 4.92717C7.94606 4.92717 5.61653 7.25531 5.61653 10.1274ZM15.0132 4.72098C15.0131 4.96134 15.0844 5.19632 15.2179 5.39623C15.3514 5.59613 15.5413 5.75197 15.7634 5.84404C15.9856 5.93611 16.2301 5.96028 16.466 5.91348C16.7019 5.86668 16.9186 5.75103 17.0887 5.58114C17.2589 5.41124 17.3748 5.19475 17.4218 4.95903C17.4688 4.72331 17.4448 4.47895 17.3529 4.25685C17.2609 4.03475 17.1051 3.84489 16.9052 3.71127C16.7053 3.57765 16.4702 3.50628 16.2297 3.50619H16.2292C15.9069 3.50634 15.5977 3.63436 15.3697 3.86213C15.1417 4.0899 15.0135 4.3988 15.0132 4.72098ZM6.72601 18.3708C5.73805 18.3258 5.20106 18.1613 4.8442 18.0224C4.3711 17.8383 4.03353 17.6191 3.67862 17.2649C3.32371 16.9107 3.10402 16.5736 2.92065 16.1008C2.78154 15.7443 2.61697 15.2075 2.57206 14.2201C2.52293 13.1526 2.51312 12.832 2.51312 10.1275C2.51312 7.42302 2.52374 7.10324 2.57206 6.03485C2.61705 5.04748 2.78283 4.51171 2.92065 4.15417C3.10483 3.68135 3.3242 3.34399 3.67862 2.98929C4.03305 2.63459 4.37028 2.41503 4.8442 2.23177C5.2009 2.09274 5.73805 1.92828 6.72601 1.88339C7.79415 1.8343 8.11501 1.82449 10.8199 1.82449C13.5248 1.82449 13.846 1.83511 14.915 1.88339C15.9029 1.92836 16.439 2.09404 16.7968 2.23177C17.2699 2.41503 17.6075 2.63508 17.9624 2.98929C18.3173 3.3435 18.5362 3.68135 18.7203 4.15417C18.8595 4.51065 19.024 5.04748 19.0689 6.03485C19.1181 7.10324 19.1279 7.42302 19.1279 10.1275C19.1279 12.832 19.1181 13.1517 19.0689 14.2201C19.0239 15.2075 18.8586 15.7442 18.7203 16.1008C18.5362 16.5736 18.3168 16.911 17.9624 17.2649C17.6079 17.6188 17.2699 17.8383 16.7968 18.0224C16.4401 18.1614 15.9029 18.3259 14.915 18.3708C13.8468 18.4199 13.526 18.4297 10.8199 18.4297C8.11379 18.4297 7.79382 18.4199 6.72601 18.3708ZM6.6421 0.0614529C5.56335 0.11055 4.82621 0.281499 4.18245 0.531845C3.51576 0.790374 2.95137 1.13721 2.38739 1.69997C1.82341 2.26272 1.47725 2.82766 1.21857 3.49395C0.968069 4.13773 0.797018 4.87402 0.747891 5.95213C0.697954 7.03194 0.686523 7.37716 0.686523 10.1274C0.686523 12.8777 0.697954 13.2229 0.747891 14.3027C0.797018 15.3809 0.968069 16.1171 1.21857 16.7609C1.47725 17.4268 1.82349 17.9923 2.38739 18.5548C2.95129 19.1174 3.51576 19.4637 4.18245 19.723C4.82742 19.9733 5.56335 20.1443 6.6421 20.1934C7.72313 20.2425 8.06799 20.2547 10.8199 20.2547C13.5718 20.2547 13.9172 20.2433 14.9977 20.1934C16.0765 20.1443 16.8132 19.9733 17.4573 19.723C18.1236 19.4637 18.6884 19.1176 19.2524 18.5548C19.8164 17.9921 20.1618 17.4268 20.4212 16.7609C20.6717 16.1171 20.8436 15.3808 20.8919 14.3027C20.941 13.2221 20.9524 12.8777 20.9524 10.1274C20.9524 7.37716 20.941 7.03194 20.8919 5.95213C20.8428 4.87394 20.6717 4.13732 20.4212 3.49395C20.1618 2.82807 19.8155 2.26361 19.2524 1.69997C18.6893 1.13632 18.1236 0.790374 17.4581 0.531845C16.8132 0.281499 16.0764 0.10974 14.9985 0.0614529C13.918 0.0123558 13.5726 0.00012207 10.8207 0.00012207C8.0688 0.00012207 7.72313 0.0115457 6.6421 0.0614529Z" fill="url(#paint0_radial_1227_2845)"/>
<path d="M7.44264 10.1274C7.44264 8.2631 8.95446 6.75138 10.8199 6.75138C12.6853 6.75138 14.1979 8.2631 14.1979 10.1274C14.1979 11.9917 12.6853 13.5034 10.8199 13.5034C8.95446 13.5034 7.44264 11.9917 7.44264 10.1274ZM5.61653 10.1274C5.61653 12.9995 7.94606 15.3276 10.8199 15.3276C13.6937 15.3276 16.0232 12.9995 16.0232 10.1274C16.0232 7.25531 13.6937 4.92717 10.8199 4.92717C7.94606 4.92717 5.61653 7.25531 5.61653 10.1274ZM15.0132 4.72098C15.0131 4.96134 15.0844 5.19632 15.2179 5.39623C15.3514 5.59613 15.5413 5.75197 15.7634 5.84404C15.9856 5.93611 16.2301 5.96028 16.466 5.91348C16.7019 5.86668 16.9186 5.75103 17.0887 5.58114C17.2589 5.41124 17.3748 5.19475 17.4218 4.95903C17.4688 4.72331 17.4448 4.47895 17.3529 4.25685C17.2609 4.03475 17.1051 3.84489 16.9052 3.71127C16.7053 3.57765 16.4702 3.50628 16.2297 3.50619H16.2292C15.9069 3.50634 15.5977 3.63436 15.3697 3.86213C15.1417 4.0899 15.0135 4.3988 15.0132 4.72098ZM6.72601 18.3708C5.73805 18.3258 5.20106 18.1613 4.8442 18.0224C4.3711 17.8383 4.03353 17.6191 3.67862 17.2649C3.32371 16.9107 3.10402 16.5736 2.92065 16.1008C2.78154 15.7443 2.61697 15.2075 2.57206 14.2201C2.52293 13.1526 2.51312 12.832 2.51312 10.1275C2.51312 7.42302 2.52374 7.10324 2.57206 6.03485C2.61705 5.04748 2.78283 4.51171 2.92065 4.15417C3.10483 3.68135 3.3242 3.34399 3.67862 2.98929C4.03305 2.63459 4.37028 2.41503 4.8442 2.23177C5.2009 2.09274 5.73805 1.92828 6.72601 1.88339C7.79415 1.8343 8.11501 1.82449 10.8199 1.82449C13.5248 1.82449 13.846 1.83511 14.915 1.88339C15.9029 1.92836 16.439 2.09404 16.7968 2.23177C17.2699 2.41503 17.6075 2.63508 17.9624 2.98929C18.3173 3.3435 18.5362 3.68135 18.7203 4.15417C18.8595 4.51065 19.024 5.04748 19.0689 6.03485C19.1181 7.10324 19.1279 7.42302 19.1279 10.1275C19.1279 12.832 19.1181 13.1517 19.0689 14.2201C19.0239 15.2075 18.8586 15.7442 18.7203 16.1008C18.5362 16.5736 18.3168 16.911 17.9624 17.2649C17.6079 17.6188 17.2699 17.8383 16.7968 18.0224C16.4401 18.1614 15.9029 18.3259 14.915 18.3708C13.8468 18.4199 13.526 18.4297 10.8199 18.4297C8.11379 18.4297 7.79382 18.4199 6.72601 18.3708ZM6.6421 0.0614529C5.56335 0.11055 4.82621 0.281499 4.18245 0.531845C3.51576 0.790374 2.95137 1.13721 2.38739 1.69997C1.82341 2.26272 1.47725 2.82766 1.21857 3.49395C0.968069 4.13773 0.797018 4.87402 0.747891 5.95213C0.697954 7.03194 0.686523 7.37716 0.686523 10.1274C0.686523 12.8777 0.697954 13.2229 0.747891 14.3027C0.797018 15.3809 0.968069 16.1171 1.21857 16.7609C1.47725 17.4268 1.82349 17.9923 2.38739 18.5548C2.95129 19.1174 3.51576 19.4637 4.18245 19.723C4.82742 19.9733 5.56335 20.1443 6.6421 20.1934C7.72313 20.2425 8.06799 20.2547 10.8199 20.2547C13.5718 20.2547 13.9172 20.2433 14.9977 20.1934C16.0765 20.1443 16.8132 19.9733 17.4573 19.723C18.1236 19.4637 18.6884 19.1176 19.2524 18.5548C19.8164 17.9921 20.1618 17.4268 20.4212 16.7609C20.6717 16.1171 20.8436 15.3808 20.8919 14.3027C20.941 13.2221 20.9524 12.8777 20.9524 10.1274C20.9524 7.37716 20.941 7.03194 20.8919 5.95213C20.8428 4.87394 20.6717 4.13732 20.4212 3.49395C20.1618 2.82807 19.8155 2.26361 19.2524 1.69997C18.6893 1.13632 18.1236 0.790374 17.4581 0.531845C16.8132 0.281499 16.0764 0.10974 14.9985 0.0614529C13.918 0.0123558 13.5726 0.00012207 10.8207 0.00012207C8.0688 0.00012207 7.72313 0.0115457 6.6421 0.0614529Z" fill="url(#paint1_radial_1227_2845)"/>
<defs>
<radialGradient id="paint0_radial_1227_2845" cx="0" cy="0" r="1" gradientUnits="userSpaceOnUse" gradientTransform="translate(3.37908 20.3504) scale(26.4565 26.4406)">
<stop offset="0.09" stop-color="#FA8F21"/>
<stop offset="0.78" stop-color="#D82D7E"/>
</radialGradient>
<radialGradient id="paint1_radial_1227_2845" cx="0" cy="0" r="1" gradientUnits="userSpaceOnUse" gradientTransform="translate(12.9774 21.2578) scale(20.8514 20.8389)">
<stop offset="0.64" stop-color="#8C3AAA" stop-opacity="0"/>
<stop offset="1" stop-color="#8C3AAA"/>
</radialGradient>
</defs>
</svg>
