<svg width="21" height="21" viewBox="0 0 21 21" fill="none" xmlns="http://www.w3.org/2000/svg">
<path d="M10.2769 20.2662C15.8734 20.2662 20.4103 15.7294 20.4103 10.1329C20.4103 4.53638 15.8734 -0.000488281 10.2769 -0.000488281C4.68042 -0.000488281 0.143555 4.53638 0.143555 10.1329C0.143555 15.7294 4.68042 20.2662 10.2769 20.2662Z" fill="#34AADF"/>
<path d="M4.4878 9.91096C4.4878 9.91096 9.50736 7.77547 11.2482 7.02352C11.9156 6.72276 14.1787 5.76025 14.1787 5.76025C14.1787 5.76025 15.2233 5.33919 15.1362 6.36181C15.1072 6.78291 14.8751 8.25669 14.643 9.85081C14.2948 12.1066 13.9176 14.573 13.9176 14.573C13.9176 14.573 13.8595 15.2648 13.3663 15.3851C12.8731 15.5054 12.0606 14.964 11.9156 14.8437C11.7995 14.7535 9.73946 13.4 8.98508 12.7382C8.78197 12.5578 8.54987 12.1969 9.01407 11.7758C10.0586 10.7832 11.3062 9.55005 12.0606 8.76804C12.4088 8.40709 12.757 7.56492 11.3062 8.58754C9.24622 10.0614 7.21519 11.4449 7.21519 11.4449C7.21519 11.4449 6.75094 11.7457 5.88051 11.475C5.01004 11.2043 3.99452 10.8434 3.99452 10.8434C3.99452 10.8434 3.29821 10.3922 4.4878 9.91096Z" fill="white"/>
</svg>
