<svg width="20" height="20" viewBox="0 0 20 20" fill="none" xmlns="http://www.w3.org/2000/svg">
<path d="M0.273438 19.55L1.67611 14.3392C0.544889 12.3093 0.18549 9.9406 0.663859 7.66774C1.14223 5.39488 2.42628 3.37033 4.28038 1.96558C6.13449 0.560825 8.43428 -0.129889 10.7577 0.0201802C13.0812 0.17025 15.2725 1.15104 16.9295 2.78256C18.5865 4.41409 19.598 6.58692 19.7785 8.90234C19.959 11.2177 19.2964 13.5204 17.9121 15.3878C16.5279 17.2553 14.515 18.5621 12.2427 19.0686C9.97044 19.5752 7.59125 19.2474 5.54173 18.1454L0.273438 19.55ZM5.79575 16.1955L6.12157 16.3883C7.60608 17.2659 9.33997 17.6291 11.053 17.4212C12.7661 17.2134 14.3621 16.4461 15.5923 15.239C16.8226 14.0319 17.6179 12.4528 17.8545 10.7477C18.091 9.04266 17.7554 7.30744 16.9 5.81248C16.0447 4.31752 14.7175 3.14679 13.1254 2.48272C11.5333 1.81866 9.7657 1.69857 8.09803 2.14116C6.43036 2.58376 4.95631 3.56418 3.9056 4.92964C2.85488 6.2951 2.28652 7.9689 2.28908 9.6902C2.28769 11.1174 2.68341 12.5171 3.4322 13.7333L3.63653 14.0693L2.85236 16.9776L5.79575 16.1955Z" fill="#00D95F"/>
<path fill-rule="evenodd" clip-rule="evenodd" d="M13.7026 11.0274C13.5116 10.8738 13.288 10.7656 13.0488 10.7112C12.8095 10.6568 12.561 10.6576 12.3221 10.7135C11.9631 10.8622 11.7312 11.424 11.4992 11.705C11.4503 11.7723 11.3785 11.8195 11.2971 11.8378C11.2158 11.856 11.1306 11.8441 11.0575 11.8041C9.74333 11.2907 8.64181 10.3492 7.93182 9.1326C7.87127 9.05668 7.84261 8.96028 7.85188 8.86371C7.86115 8.76713 7.90763 8.67791 7.98153 8.61482C8.24021 8.35939 8.43015 8.04301 8.53376 7.69494C8.55676 7.31102 8.46858 6.92861 8.27973 6.59329C8.13373 6.12319 7.85588 5.7046 7.479 5.38698C7.28461 5.29978 7.06908 5.27054 6.85841 5.30279C6.64773 5.33505 6.45091 5.42741 6.2917 5.56875C6.01529 5.80662 5.79589 6.10331 5.64967 6.43696C5.50344 6.77061 5.43411 7.13273 5.44678 7.49665C5.44764 7.70101 5.4736 7.9045 5.5241 8.10256C5.65233 8.57842 5.84953 9.03305 6.10946 9.45208C6.297 9.77306 6.50162 10.0838 6.72244 10.383C7.44009 11.3656 8.34219 12.2 9.37867 12.8397C9.89879 13.1647 10.4547 13.429 11.0354 13.6273C11.6386 13.9001 12.3046 14.0048 12.9627 13.9303C13.3376 13.8737 13.6928 13.726 13.9971 13.5003C14.3014 13.2746 14.5454 12.9777 14.7077 12.6359C14.803 12.4293 14.832 12.1984 14.7905 11.9749C14.6911 11.5177 14.0782 11.2478 13.7026 11.0274Z" fill="#00D95F"/>
</svg>
