<svg width="97" height="11" viewBox="0 0 97 11" fill="none" xmlns="http://www.w3.org/2000/svg">
<path d="M4.872 10.14C4.004 10.14 3.26667 9.99067 2.66 9.692C2.06267 9.384 1.60533 8.95 1.288 8.39C0.970667 7.82067 0.793333 7.13933 0.756 6.346C0.746667 5.96333 0.742 5.55267 0.742 5.114C0.742 4.67533 0.746667 4.25533 0.756 3.854C0.793333 3.07 0.970667 2.39333 1.288 1.824C1.61467 1.25467 2.07667 0.820666 2.674 0.521999C3.28067 0.213999 4.01333 0.0599995 4.872 0.0599995C5.50667 0.0599995 6.076 0.143999 6.58 0.312C7.084 0.48 7.51333 0.713333 7.868 1.012C8.22267 1.30133 8.498 1.642 8.694 2.034C8.89 2.426 8.99267 2.85067 9.002 3.308C9.01133 3.392 8.98333 3.462 8.918 3.518C8.862 3.574 8.792 3.602 8.708 3.602H7.378C7.27533 3.602 7.19133 3.57867 7.126 3.532C7.06067 3.476 7.014 3.38733 6.986 3.266C6.83667 2.65 6.58 2.23 6.216 2.006C5.852 1.782 5.39933 1.67 4.858 1.67C4.23267 1.67 3.73333 1.84733 3.36 2.202C2.98667 2.54733 2.786 3.12133 2.758 3.924C2.73 4.68933 2.73 5.47333 2.758 6.276C2.786 7.07867 2.98667 7.65733 3.36 8.012C3.73333 8.35733 4.23267 8.53 4.858 8.53C5.39933 8.53 5.852 8.418 6.216 8.194C6.58 7.96067 6.83667 7.54067 6.986 6.934C7.014 6.80333 7.06067 6.71467 7.126 6.668C7.19133 6.62133 7.27533 6.598 7.378 6.598H8.708C8.792 6.598 8.862 6.626 8.918 6.682C8.98333 6.738 9.01133 6.808 9.002 6.892C8.99267 7.34933 8.89 7.774 8.694 8.166C8.498 8.558 8.22267 8.90333 7.868 9.202C7.51333 9.49133 7.084 9.72 6.58 9.888C6.076 10.056 5.50667 10.14 4.872 10.14ZM9.95094 10C9.87627 10 9.80627 9.972 9.74094 9.916C9.68494 9.86 9.65694 9.79 9.65694 9.706C9.65694 9.66867 9.66627 9.62667 9.68494 9.58L13.0589 0.55C13.0869 0.456666 13.1383 0.377333 13.2129 0.312C13.2969 0.237333 13.4089 0.199999 13.5489 0.199999H15.0749C15.2149 0.199999 15.3223 0.237333 15.3969 0.312C15.4716 0.377333 15.5276 0.456666 15.5649 0.55L18.9389 9.58C18.9483 9.62667 18.9529 9.66867 18.9529 9.706C18.9529 9.79 18.9249 9.86 18.8689 9.916C18.8129 9.972 18.7476 10 18.6729 10H17.4549C17.3243 10 17.2263 9.972 17.1609 9.916C17.1049 9.85067 17.0676 9.79 17.0489 9.734L16.3909 8.026H12.2329L11.5749 9.734C11.5563 9.79 11.5143 9.85067 11.4489 9.916C11.3929 9.972 11.2996 10 11.1689 10H9.95094ZM12.7229 6.416H15.9009L14.3049 2.09L12.7229 6.416ZM20.596 10C20.5026 10 20.4233 9.96733 20.358 9.902C20.2926 9.83667 20.26 9.75733 20.26 9.664V0.55C20.26 0.447333 20.2926 0.363333 20.358 0.298C20.4233 0.232666 20.5026 0.199999 20.596 0.199999H21.828C21.9306 0.199999 22.0146 0.232666 22.08 0.298C22.1453 0.363333 22.178 0.447333 22.178 0.55V3.826L25.342 0.451999C25.3793 0.405333 25.44 0.354 25.524 0.298C25.6173 0.232666 25.7386 0.199999 25.888 0.199999H27.274C27.3486 0.199999 27.414 0.228 27.47 0.284C27.5353 0.34 27.568 0.41 27.568 0.494C27.568 0.559333 27.5493 0.615333 27.512 0.661999L23.662 4.89L27.778 9.524C27.8246 9.58 27.848 9.64067 27.848 9.706C27.848 9.79 27.8153 9.86 27.75 9.916C27.694 9.972 27.6286 10 27.554 10H26.112C25.9533 10 25.8273 9.96733 25.734 9.902C25.65 9.82733 25.594 9.776 25.566 9.748L22.178 6.038V9.664C22.178 9.75733 22.1453 9.83667 22.08 9.902C22.0146 9.96733 21.9306 10 21.828 10H20.596ZM29.4417 10C29.3483 10 29.269 9.96733 29.2037 9.902C29.1383 9.83667 29.1057 9.75733 29.1057 9.664V0.55C29.1057 0.447333 29.1383 0.363333 29.2037 0.298C29.269 0.232666 29.3483 0.199999 29.4417 0.199999H35.6017C35.7043 0.199999 35.7883 0.232666 35.8537 0.298C35.919 0.363333 35.9517 0.447333 35.9517 0.55V1.474C35.9517 1.56733 35.919 1.64667 35.8537 1.712C35.7883 1.77733 35.7043 1.81 35.6017 1.81H30.9957V4.288H35.2937C35.3963 4.288 35.4803 4.32067 35.5457 4.386C35.611 4.442 35.6437 4.52133 35.6437 4.624V5.492C35.6437 5.59467 35.611 5.67867 35.5457 5.744C35.4803 5.8 35.3963 5.828 35.2937 5.828H30.9957V8.39H35.7137C35.8163 8.39 35.9003 8.42267 35.9657 8.488C36.031 8.55333 36.0637 8.63733 36.0637 8.74V9.664C36.0637 9.75733 36.031 9.83667 35.9657 9.902C35.9003 9.96733 35.8163 10 35.7137 10H29.4417ZM41.3499 10C41.2565 10 41.1772 9.972 41.1119 9.916C41.0465 9.85067 41.0139 9.76667 41.0139 9.664V0.55C41.0139 0.447333 41.0465 0.363333 41.1119 0.298C41.1772 0.232666 41.2565 0.199999 41.3499 0.199999H42.6239C42.7265 0.199999 42.8059 0.232666 42.8619 0.298C42.9272 0.363333 42.9599 0.447333 42.9599 0.55V4.162H47.0899V0.55C47.0899 0.447333 47.1225 0.363333 47.1879 0.298C47.2532 0.232666 47.3325 0.199999 47.4259 0.199999H48.6859C48.7885 0.199999 48.8725 0.232666 48.9379 0.298C49.0032 0.363333 49.0359 0.447333 49.0359 0.55V9.664C49.0359 9.75733 49.0032 9.83667 48.9379 9.902C48.8725 9.96733 48.7885 10 48.6859 10H47.4259C47.3325 10 47.2532 9.96733 47.1879 9.902C47.1225 9.83667 47.0899 9.75733 47.0899 9.664V5.912H42.9599V9.664C42.9599 9.75733 42.9272 9.83667 42.8619 9.902C42.8059 9.96733 42.7265 10 42.6239 10H41.3499ZM55.1191 10.14C54.3071 10.14 53.6024 10.0047 53.0051 9.734C52.4078 9.454 51.9458 9.02933 51.6191 8.46C51.2924 7.88133 51.1291 7.144 51.1291 6.248V0.55C51.1291 0.447333 51.1618 0.363333 51.2271 0.298C51.2924 0.232666 51.3718 0.199999 51.4651 0.199999H52.7391C52.8418 0.199999 52.9211 0.232666 52.9771 0.298C53.0424 0.363333 53.0751 0.447333 53.0751 0.55V6.248C53.0751 7.01333 53.2571 7.58267 53.6211 7.956C53.9851 8.32 54.4844 8.502 55.1191 8.502C55.7538 8.502 56.2484 8.32 56.6031 7.956C56.9671 7.58267 57.1491 7.01333 57.1491 6.248V0.55C57.1491 0.447333 57.1818 0.363333 57.2471 0.298C57.3124 0.232666 57.3964 0.199999 57.4991 0.199999H58.7591C58.8618 0.199999 58.9411 0.232666 58.9971 0.298C59.0624 0.363333 59.0951 0.447333 59.0951 0.55V6.248C59.0951 7.144 58.9318 7.88133 58.6051 8.46C58.2878 9.02933 57.8304 9.454 57.2331 9.734C56.6451 10.0047 55.9404 10.14 55.1191 10.14ZM61.5296 10C61.4362 10 61.3569 9.96733 61.2916 9.902C61.2262 9.83667 61.1936 9.75733 61.1936 9.664V0.55C61.1936 0.447333 61.2262 0.363333 61.2916 0.298C61.3569 0.232666 61.4362 0.199999 61.5296 0.199999H62.6076C62.7382 0.199999 62.8316 0.232666 62.8876 0.298C62.9529 0.354 62.9949 0.396 63.0136 0.424L67.0456 6.696V0.55C67.0456 0.447333 67.0736 0.363333 67.1296 0.298C67.1949 0.232666 67.2789 0.199999 67.3816 0.199999H68.5576C68.6602 0.199999 68.7442 0.232666 68.8096 0.298C68.8749 0.363333 68.9076 0.447333 68.9076 0.55V9.65C68.9076 9.75267 68.8749 9.83667 68.8096 9.902C68.7442 9.96733 68.6649 10 68.5716 10H67.4796C67.3489 10 67.2556 9.96733 67.1996 9.902C67.1436 9.83667 67.1016 9.79467 67.0736 9.776L63.0556 3.644V9.664C63.0556 9.75733 63.0229 9.83667 62.9576 9.902C62.8922 9.96733 62.8082 10 62.7056 10H61.5296ZM73.584 10C73.4907 10 73.4113 9.96733 73.346 9.902C73.2807 9.83667 73.248 9.75733 73.248 9.664V1.922H70.658C70.5647 1.922 70.4853 1.88933 70.42 1.824C70.3547 1.75867 70.322 1.67933 70.322 1.586V0.55C70.322 0.447333 70.3547 0.363333 70.42 0.298C70.4853 0.232666 70.5647 0.199999 70.658 0.199999H77.798C77.9007 0.199999 77.9847 0.232666 78.05 0.298C78.1153 0.363333 78.148 0.447333 78.148 0.55V1.586C78.148 1.67933 78.1153 1.75867 78.05 1.824C77.9847 1.88933 77.9007 1.922 77.798 1.922H75.222V9.664C75.222 9.75733 75.1893 9.83667 75.124 9.902C75.0587 9.96733 74.9747 10 74.872 10H73.584ZM79.9046 10C79.8112 10 79.7319 9.96733 79.6666 9.902C79.6012 9.83667 79.5686 9.75733 79.5686 9.664V0.55C79.5686 0.447333 79.6012 0.363333 79.6666 0.298C79.7319 0.232666 79.8112 0.199999 79.9046 0.199999H86.0646C86.1672 0.199999 86.2512 0.232666 86.3166 0.298C86.3819 0.363333 86.4146 0.447333 86.4146 0.55V1.474C86.4146 1.56733 86.3819 1.64667 86.3166 1.712C86.2512 1.77733 86.1672 1.81 86.0646 1.81H81.4586V4.288H85.7566C85.8592 4.288 85.9432 4.32067 86.0086 4.386C86.0739 4.442 86.1066 4.52133 86.1066 4.624V5.492C86.1066 5.59467 86.0739 5.67867 86.0086 5.744C85.9432 5.8 85.8592 5.828 85.7566 5.828H81.4586V8.39H86.1766C86.2792 8.39 86.3632 8.42267 86.4286 8.488C86.4939 8.55333 86.5266 8.63733 86.5266 8.74V9.664C86.5266 9.75733 86.4939 9.83667 86.4286 9.902C86.3632 9.96733 86.2792 10 86.1766 10H79.9046ZM88.6135 10C88.5202 10 88.4409 9.96733 88.3755 9.902C88.3102 9.83667 88.2775 9.75733 88.2775 9.664V0.55C88.2775 0.447333 88.3102 0.363333 88.3755 0.298C88.4409 0.232666 88.5202 0.199999 88.6135 0.199999H92.2395C93.3689 0.199999 94.2602 0.461333 94.9135 0.983999C95.5669 1.50667 95.8935 2.26733 95.8935 3.266C95.8935 3.95667 95.7209 4.53067 95.3755 4.988C95.0395 5.44533 94.5869 5.77667 94.0175 5.982L96.0615 9.552C96.0895 9.608 96.1035 9.65933 96.1035 9.706C96.1035 9.79 96.0709 9.86 96.0055 9.916C95.9495 9.972 95.8842 10 95.8095 10H94.5355C94.3769 10 94.2555 9.958 94.1715 9.874C94.0875 9.79 94.0222 9.706 93.9755 9.622L92.1695 6.304H90.2235V9.664C90.2235 9.75733 90.1909 9.83667 90.1255 9.902C90.0695 9.96733 89.9902 10 89.8875 10H88.6135ZM90.2235 4.722H92.1975C92.7669 4.722 93.1915 4.596 93.4715 4.344C93.7515 4.08267 93.8915 3.71867 93.8915 3.252C93.8915 2.78533 93.7515 2.42133 93.4715 2.16C93.2009 1.88933 92.7762 1.754 92.1975 1.754H90.2235V4.722Z" fill="url(#paint0_linear_1214_2541)"/>
<defs>
<linearGradient id="paint0_linear_1214_2541" x1="-42.1739" y1="-14.8276" x2="102.851" y2="20.2036" gradientUnits="userSpaceOnUse">
<stop stop-color="#FF8A00"/>
<stop offset="1" stop-color="#FF007A"/>
</linearGradient>
</defs>
</svg>
