<svg width="12" height="12" viewBox="0 0 12 12" fill="none" xmlns="http://www.w3.org/2000/svg">
<path d="M4.95975 10.263C5.44522 10.2629 5.92451 10.1887 6.38302 10.0455C7.37766 9.73494 8.55107 9.75481 9.27524 10.504L10.2679 11.5311C10.5157 11.7874 10.9266 11.7874 11.1744 11.5311C11.4105 11.2868 11.4105 10.8993 11.1744 10.6549L10.1524 9.59754C9.41555 8.83523 9.39525 7.65407 9.6991 6.63835C9.84412 6.15359 9.91939 5.6459 9.91951 5.13149C9.91951 2.30212 7.69444 0 4.95975 0C2.22507 0 0 2.30212 0 5.13149C0 7.96087 2.22507 10.263 4.95975 10.263ZM4.95975 1.28287C7.01123 1.28287 8.67957 3.00898 8.67957 5.13149C8.67957 7.25401 7.01123 8.98012 4.95975 8.98012C2.90828 8.98012 1.23994 7.25401 1.23994 5.13149C1.23994 3.00898 2.90828 1.28287 4.95975 1.28287Z" fill="#FF068C"/>
</svg>
