<svg width="19" height="19" viewBox="0 0 19 19" fill="none" xmlns="http://www.w3.org/2000/svg">
<path fill-rule="evenodd" clip-rule="evenodd" d="M9.5013 0.791687C4.69193 0.791687 0.792969 4.69065 0.792969 9.50002C0.792969 14.3094 4.69193 18.2084 9.5013 18.2084C14.3107 18.2084 18.2096 14.3094 18.2096 9.50002C18.2096 4.69065 14.3107 0.791687 9.5013 0.791687ZM13.276 8.02752C13.3455 7.94807 13.3984 7.85552 13.4316 7.75532C13.4648 7.65512 13.4776 7.54929 13.4693 7.44405C13.4611 7.33881 13.4318 7.2363 13.3833 7.14254C13.3348 7.04878 13.268 6.96566 13.1869 6.89808C13.1058 6.8305 13.0121 6.77982 12.9111 6.74903C12.8101 6.71823 12.704 6.70794 12.599 6.71876C12.494 6.72958 12.3922 6.76129 12.2996 6.81202C12.2071 6.86276 12.1256 6.93149 12.06 7.01419L8.6558 11.0984L6.89434 9.33615C6.74503 9.19194 6.54506 9.11214 6.33748 9.11395C6.12991 9.11575 5.93135 9.19901 5.78457 9.34579C5.63779 9.49257 5.55453 9.69113 5.55273 9.8987C5.55092 10.1063 5.63072 10.3063 5.77493 10.4556L8.14993 12.8306C8.22771 12.9083 8.32084 12.969 8.42338 13.0087C8.52592 13.0485 8.63561 13.0664 8.74547 13.0615C8.85533 13.0565 8.96295 13.0286 9.06146 12.9797C9.15997 12.9309 9.24722 12.862 9.31763 12.7775L13.276 8.02752Z" fill="#09CF4C"/>
</svg>
