<svg width="35" height="35" viewBox="0 0 35 35" fill="none" xmlns="http://www.w3.org/2000/svg">
<path d="M24.1787 21.1195C22.5061 18.9781 20.0527 17.6116 17.2706 17.2706C14.4885 16.9296 11.7777 17.6631 9.63746 19.3371L11.2281 21.3722C12.8256 20.1235 14.859 19.5763 16.9565 19.8334C19.0538 20.0918 20.895 21.1126 22.1437 22.7102L24.1787 21.1195Z" fill="url(#paint0_linear_175_281)"/>
<path d="M28.1986 17.6888C23.0556 11.1074 13.1465 9.89277 6.56625 15.0372L8.15689 17.0723C13.636 12.7897 21.881 13.8003 26.1636 19.2794L28.1986 17.6888Z" fill="url(#paint1_linear_175_281)"/>
<path d="M16.0134 27.5272C17.4296 27.7008 18.7183 26.6935 18.8919 25.2773C19.0655 23.8612 18.0582 22.5725 16.642 22.3989C15.2259 22.2253 13.9372 23.2326 13.7636 24.6487C13.59 26.0649 14.5973 27.3536 16.0134 27.5272Z" fill="url(#paint2_linear_175_281)"/>
<defs>
<linearGradient id="paint0_linear_175_281" x1="3.96505" y1="13.2603" x2="26.0374" y2="19.4314" gradientUnits="userSpaceOnUse">
<stop stop-color="#FF8A00"/>
<stop offset="1" stop-color="#FF007A"/>
</linearGradient>
<linearGradient id="paint1_linear_175_281" x1="-1.92613" y1="6.43568" x2="30.5968" y2="16.2738" gradientUnits="userSpaceOnUse">
<stop stop-color="#FF8A00"/>
<stop offset="1" stop-color="#FF007A"/>
</linearGradient>
<linearGradient id="paint2_linear_175_281" x1="12.1571" y1="19.2914" x2="20.2023" y2="20.6867" gradientUnits="userSpaceOnUse">
<stop stop-color="#FF8A00"/>
<stop offset="1" stop-color="#FF007A"/>
</linearGradient>
</defs>
</svg>
