<svg width="19" height="20" viewBox="0 0 19 20" fill="none" xmlns="http://www.w3.org/2000/svg">
<path d="M6.49585 9.9999C6.49585 8.29095 7.84092 6.9052 9.50061 6.9052C11.1603 6.9052 12.5061 8.29095 12.5061 9.9999C12.5061 11.7089 11.1603 13.0946 9.50061 13.0946C7.84092 13.0946 6.49585 11.7089 6.49585 9.9999ZM4.87115 9.9999C4.87115 12.6327 6.94375 14.7668 9.50061 14.7668C12.0575 14.7668 14.1301 12.6327 14.1301 9.9999C14.1301 7.36714 12.0575 5.23301 9.50061 5.23301C6.94375 5.23301 4.87115 7.36714 4.87115 9.9999ZM13.2315 5.044C13.2314 5.26433 13.2947 5.47974 13.4135 5.66298C13.5324 5.84623 13.7013 5.98908 13.8989 6.07348C14.0966 6.15788 14.3141 6.18003 14.524 6.13713C14.7339 6.09423 14.9267 5.98822 15.078 5.83248C15.2294 5.67675 15.3325 5.47829 15.3744 5.26222C15.4162 5.04614 15.3948 4.82214 15.313 4.61855C15.2312 4.41496 15.0926 4.24092 14.9148 4.11844C14.7369 3.99596 14.5277 3.93054 14.3138 3.93045H14.3133C14.0265 3.93059 13.7515 4.04794 13.5486 4.25673C13.3458 4.46552 13.2317 4.74867 13.2315 5.044ZM5.85826 17.5563C4.97926 17.5151 4.5015 17.3643 4.184 17.237C3.76308 17.0682 3.46275 16.8673 3.14698 16.5426C2.83122 16.2179 2.63575 15.9089 2.47261 15.4755C2.34884 15.1487 2.20242 14.6566 2.16247 13.7516C2.11876 12.773 2.11003 12.4791 2.11003 9.99997C2.11003 7.52087 2.11948 7.22774 2.16247 6.24839C2.2025 5.3433 2.34999 4.85217 2.47261 4.52443C2.63648 4.09101 2.83165 3.78177 3.14698 3.45663C3.46232 3.13149 3.76236 2.93022 4.184 2.76223C4.50136 2.63479 4.97926 2.48403 5.85826 2.44288C6.80859 2.39788 7.09406 2.38889 9.50061 2.38889C11.9072 2.38889 12.1929 2.39862 13.144 2.44288C14.023 2.4841 14.5 2.63598 14.8183 2.76223C15.2392 2.93022 15.5395 3.13193 15.8553 3.45663C16.1711 3.78132 16.3658 4.09101 16.5297 4.52443C16.6535 4.85121 16.7999 5.3433 16.8398 6.24839C16.8835 7.22774 16.8923 7.52087 16.8923 9.99997C16.8923 12.4791 16.8835 12.7722 16.8398 13.7516C16.7998 14.6566 16.6527 15.1486 16.5297 15.4755C16.3658 15.9089 16.1706 16.2182 15.8553 16.5426C15.54 16.867 15.2392 17.0682 14.8183 17.237C14.5009 17.3644 14.023 17.5152 13.144 17.5563C12.1937 17.6013 11.9082 17.6103 9.50061 17.6103C7.09298 17.6103 6.8083 17.6013 5.85826 17.5563ZM5.78361 0.772773C4.82383 0.817778 4.16799 0.974481 3.59524 1.20397C3.00208 1.44095 2.49994 1.75889 1.99816 2.27474C1.49638 2.7906 1.18841 3.30846 0.958255 3.91923C0.735386 4.50936 0.583201 5.18429 0.539493 6.17256C0.495064 7.16239 0.484894 7.47884 0.484894 9.9999C0.484894 12.521 0.495064 12.8374 0.539493 13.8272C0.583201 14.8156 0.735386 15.4904 0.958255 16.0806C1.18841 16.691 1.49646 17.2094 1.99816 17.7251C2.49987 18.2407 3.00208 18.5582 3.59524 18.7958C4.16907 19.0253 4.82383 19.182 5.78361 19.227C6.74541 19.272 7.05223 19.2832 9.50061 19.2832C11.949 19.2832 12.2563 19.2728 13.2176 19.227C14.1775 19.182 14.8329 19.0253 15.406 18.7958C15.9988 18.5582 16.5013 18.2409 17.003 17.7251C17.5048 17.2092 17.8122 16.691 18.043 16.0806C18.2658 15.4904 18.4187 14.8155 18.4617 13.8272C18.5054 12.8367 18.5156 12.521 18.5156 9.9999C18.5156 7.47884 18.5054 7.16239 18.4617 6.17256C18.418 5.18422 18.2658 4.50899 18.043 3.91923C17.8122 3.30883 17.504 2.79142 17.003 2.27474C16.5021 1.75807 15.9988 1.44095 15.4067 1.20397C14.8329 0.974481 14.1774 0.817036 13.2183 0.772773C12.257 0.727767 11.9497 0.716553 9.50133 0.716553C7.05295 0.716553 6.74541 0.727024 5.78361 0.772773Z" fill="#585858"/>
<path d="M6.49585 9.9999C6.49585 8.29095 7.84092 6.9052 9.50061 6.9052C11.1603 6.9052 12.5061 8.29095 12.5061 9.9999C12.5061 11.7089 11.1603 13.0946 9.50061 13.0946C7.84092 13.0946 6.49585 11.7089 6.49585 9.9999ZM4.87115 9.9999C4.87115 12.6327 6.94375 14.7668 9.50061 14.7668C12.0575 14.7668 14.1301 12.6327 14.1301 9.9999C14.1301 7.36714 12.0575 5.23301 9.50061 5.23301C6.94375 5.23301 4.87115 7.36714 4.87115 9.9999ZM13.2315 5.044C13.2314 5.26433 13.2947 5.47974 13.4135 5.66298C13.5324 5.84623 13.7013 5.98908 13.8989 6.07348C14.0966 6.15788 14.3141 6.18003 14.524 6.13713C14.7339 6.09423 14.9267 5.98822 15.078 5.83248C15.2294 5.67675 15.3325 5.47829 15.3744 5.26222C15.4162 5.04614 15.3948 4.82214 15.313 4.61855C15.2312 4.41496 15.0926 4.24092 14.9148 4.11844C14.7369 3.99596 14.5277 3.93054 14.3138 3.93045H14.3133C14.0265 3.93059 13.7515 4.04794 13.5486 4.25673C13.3458 4.46552 13.2317 4.74867 13.2315 5.044ZM5.85826 17.5563C4.97926 17.5151 4.5015 17.3643 4.184 17.237C3.76308 17.0682 3.46275 16.8673 3.14698 16.5426C2.83122 16.2179 2.63575 15.9089 2.47261 15.4755C2.34884 15.1487 2.20242 14.6566 2.16247 13.7516C2.11876 12.773 2.11003 12.4791 2.11003 9.99997C2.11003 7.52087 2.11948 7.22774 2.16247 6.24839C2.2025 5.3433 2.34999 4.85217 2.47261 4.52443C2.63648 4.09101 2.83165 3.78177 3.14698 3.45663C3.46232 3.13149 3.76236 2.93022 4.184 2.76223C4.50136 2.63479 4.97926 2.48403 5.85826 2.44288C6.80859 2.39788 7.09406 2.38889 9.50061 2.38889C11.9072 2.38889 12.1929 2.39862 13.144 2.44288C14.023 2.4841 14.5 2.63598 14.8183 2.76223C15.2392 2.93022 15.5395 3.13193 15.8553 3.45663C16.1711 3.78132 16.3658 4.09101 16.5297 4.52443C16.6535 4.85121 16.7999 5.3433 16.8398 6.24839C16.8835 7.22774 16.8923 7.52087 16.8923 9.99997C16.8923 12.4791 16.8835 12.7722 16.8398 13.7516C16.7998 14.6566 16.6527 15.1486 16.5297 15.4755C16.3658 15.9089 16.1706 16.2182 15.8553 16.5426C15.54 16.867 15.2392 17.0682 14.8183 17.237C14.5009 17.3644 14.023 17.5152 13.144 17.5563C12.1937 17.6013 11.9082 17.6103 9.50061 17.6103C7.09298 17.6103 6.8083 17.6013 5.85826 17.5563ZM5.78361 0.772773C4.82383 0.817778 4.16799 0.974481 3.59524 1.20397C3.00208 1.44095 2.49994 1.75889 1.99816 2.27474C1.49638 2.7906 1.18841 3.30846 0.958255 3.91923C0.735386 4.50936 0.583201 5.18429 0.539493 6.17256C0.495064 7.16239 0.484894 7.47884 0.484894 9.9999C0.484894 12.521 0.495064 12.8374 0.539493 13.8272C0.583201 14.8156 0.735386 15.4904 0.958255 16.0806C1.18841 16.691 1.49646 17.2094 1.99816 17.7251C2.49987 18.2407 3.00208 18.5582 3.59524 18.7958C4.16907 19.0253 4.82383 19.182 5.78361 19.227C6.74541 19.272 7.05223 19.2832 9.50061 19.2832C11.949 19.2832 12.2563 19.2728 13.2176 19.227C14.1775 19.182 14.8329 19.0253 15.406 18.7958C15.9988 18.5582 16.5013 18.2409 17.003 17.7251C17.5048 17.2092 17.8122 16.691 18.043 16.0806C18.2658 15.4904 18.4187 14.8155 18.4617 13.8272C18.5054 12.8367 18.5156 12.521 18.5156 9.9999C18.5156 7.47884 18.5054 7.16239 18.4617 6.17256C18.418 5.18422 18.2658 4.50899 18.043 3.91923C17.8122 3.30883 17.504 2.79142 17.003 2.27474C16.5021 1.75807 15.9988 1.44095 15.4067 1.20397C14.8329 0.974481 14.1774 0.817036 13.2183 0.772773C12.257 0.727767 11.9497 0.716553 9.50133 0.716553C7.05295 0.716553 6.74541 0.727024 5.78361 0.772773Z" fill="#585858"/>
</svg>
