<svg width="19" height="20" viewBox="0 0 19 20" fill="none" xmlns="http://www.w3.org/2000/svg">
<path d="M9.58438 19.4898C14.5636 19.4898 18.6001 15.331 18.6001 10.2009C18.6001 5.07078 14.5636 0.911987 9.58438 0.911987C4.60514 0.911987 0.568665 5.07078 0.568665 10.2009C0.568665 15.331 4.60514 19.4898 9.58438 19.4898Z" fill="#585858"/>
<path d="M4.43355 9.99742C4.43355 9.99742 8.89948 8.0399 10.4483 7.3506C11.0421 7.07491 13.0556 6.19261 13.0556 6.19261C13.0556 6.19261 13.985 5.80664 13.9075 6.74404C13.8817 7.13005 13.6752 8.48101 13.4687 9.94228C13.1589 12.0101 12.8233 14.2709 12.8233 14.2709C12.8233 14.2709 12.7716 14.9051 12.3328 15.0154C11.894 15.1256 11.1711 14.6294 11.0421 14.5191C10.9388 14.4364 9.10598 13.1957 8.43481 12.5891C8.2541 12.4237 8.04759 12.0929 8.4606 11.7068C9.38994 10.797 10.5 9.66659 11.1711 8.94975C11.4809 8.61887 11.7907 7.84689 10.5 8.78429C8.66714 10.1353 6.86012 11.4036 6.86012 11.4036C6.86012 11.4036 6.44708 11.6793 5.67265 11.4311C4.89819 11.183 3.99467 10.8521 3.99467 10.8521C3.99467 10.8521 3.37516 10.4386 4.43355 9.99742Z" fill="white"/>
</svg>
