<svg width="21" height="12" viewBox="0 0 21 12" fill="none" xmlns="http://www.w3.org/2000/svg">
<path fill-rule="evenodd" clip-rule="evenodd" d="M20.1288 0.865953C20.2683 0.416889 20.1288 0.0869141 19.4651 0.0869141H17.2703C16.7123 0.0869141 16.455 0.371964 16.3155 0.686291C16.3155 0.686291 15.1994 3.31328 13.6182 5.01969C13.1067 5.51364 12.8742 5.6708 12.5951 5.6708C12.4557 5.6708 12.2537 5.51364 12.2537 5.06461V0.865955C12.2537 0.327077 12.0918 0.0869141 11.6267 0.0869141H8.17777C7.82903 0.0869141 7.6193 0.33702 7.6193 0.574053C7.6193 1.0849 8.40982 1.2027 8.4913 2.63971V5.76065C8.4913 6.44491 8.36333 6.56896 8.08431 6.56896C7.34027 6.56896 5.53041 3.93024 4.45699 0.910841C4.24663 0.323977 4.03564 0.0869141 3.47472 0.0869141H1.27996C0.652887 0.0869141 0.527466 0.371964 0.527466 0.686291C0.527466 1.24763 1.27154 4.03179 3.99199 7.71403C5.8056 10.2287 8.36087 11.5919 10.6861 11.5919C12.0812 11.5919 12.2537 11.2891 12.2537 10.7676V8.867C12.2537 8.26148 12.3859 8.14063 12.8277 8.14063C13.1532 8.14063 13.7113 8.29779 15.0134 9.51025C16.5015 10.9472 16.7468 11.5919 17.5839 11.5919H19.7786C20.4057 11.5919 20.7192 11.2891 20.5384 10.6916C20.3404 10.0961 19.6299 9.23215 18.6872 8.20798C18.1756 7.62422 17.4083 6.99557 17.1758 6.68117C16.8503 6.27707 16.9433 6.0974 17.1758 5.73819C17.1758 5.73819 19.8498 2.10083 20.1288 0.865953Z" fill="#585858"/>
</svg>
