<svg width="15" height="17" viewBox="0 0 15 17" fill="none" xmlns="http://www.w3.org/2000/svg">
<path fill-rule="evenodd" clip-rule="evenodd" d="M11.0206 5.64116C12.1258 6.45069 13.4494 6.8832 14.8055 6.87796V4.10902C14.5389 4.10978 14.273 4.08037 14.0126 4.02133V6.22726C12.6535 6.22974 11.328 5.79226 10.2233 4.97662V10.6714C10.2199 11.6059 9.9712 12.522 9.50347 13.3226C9.03573 14.1232 8.36642 14.7785 7.56651 15.219C6.7666 15.6594 5.8659 15.8687 4.95993 15.8244C4.05396 15.7802 3.17649 15.4843 2.42056 14.9679C3.11978 15.6968 4.0132 16.1955 4.98771 16.4009C5.96221 16.6063 6.97396 16.5091 7.89483 16.1217C8.8157 15.7343 9.60428 15.0741 10.1607 14.2246C10.7171 13.3751 11.0164 12.3746 11.0206 11.3498V5.64116ZM12.0015 2.81685C11.4394 2.18918 11.0946 1.38767 11.0206 0.537086V0.177124H10.2681C10.3611 0.717795 10.5635 1.23224 10.8621 1.68703C11.1608 2.14182 11.549 2.52677 12.0015 2.81685ZM4.16296 12.7758C3.90214 12.4244 3.74231 12.0046 3.70165 11.5643C3.66099 11.1239 3.74113 10.6806 3.93296 10.2848C4.12478 9.88906 4.42059 9.55673 4.78671 9.32565C5.15283 9.09457 5.57456 8.97403 6.0039 8.97774C6.24094 8.97766 6.47659 9.01502 6.70265 9.08849V6.22726C6.43839 6.1912 6.17187 6.17577 5.90535 6.18111V8.40549C5.35492 8.22622 4.75916 8.26699 4.23656 8.51968C3.71397 8.77236 3.30284 9.21846 3.08494 9.76924C2.86705 10.32 2.85835 10.9351 3.06059 11.4922C3.26282 12.0493 3.66117 12.5075 4.1764 12.7758H4.16296Z" fill="#585858"/>
<path fill-rule="evenodd" clip-rule="evenodd" d="M10.2229 4.95816C11.3276 5.77381 12.6531 6.21128 14.0123 6.2088V4.00288C13.2379 3.83419 12.5345 3.41935 12.0011 2.81685C11.5486 2.52677 11.1604 2.14182 10.8618 1.68703C10.5631 1.23225 10.3607 0.717795 10.2677 0.177124H8.28788V11.3498C8.28604 11.8443 8.13392 12.3259 7.8529 12.7268C7.57187 13.1277 7.17604 13.4279 6.72097 13.5852C6.2659 13.7425 5.77445 13.749 5.31559 13.6039C4.85674 13.4587 4.45353 13.1691 4.16257 12.7758C3.70145 12.5361 3.33217 12.1433 3.1143 11.6608C2.89643 11.1783 2.84268 10.6343 2.96173 10.1165C3.08078 9.59868 3.36567 9.13729 3.77045 8.80677C4.17523 8.47624 4.67629 8.29587 5.19278 8.29473C5.42975 8.29551 5.66528 8.33284 5.89153 8.40549V6.18111C4.91399 6.20528 3.96457 6.52301 3.15983 7.09528C2.35508 7.66755 1.73002 8.46946 1.36138 9.40257C0.992737 10.3357 0.896557 11.3594 1.08464 12.348C1.27273 13.3367 1.7369 14.2472 2.42017 14.9679C3.17626 15.488 4.05511 15.787 4.96311 15.8332C5.87112 15.8793 6.77427 15.6708 7.57636 15.2299C8.37845 14.789 9.04944 14.1322 9.51786 13.3294C9.98628 12.5267 10.2346 11.6081 10.2363 10.6714L10.2229 4.95816Z" fill="#585858"/>
</svg>
