<svg width="117" height="21" viewBox="0 0 117 21" fill="none" xmlns="http://www.w3.org/2000/svg">
<path d="M9.26243 2.00602C9.38218 1.6375 9.90354 1.6375 10.0233 2.00603L11.718 7.22186C11.7716 7.38667 11.9251 7.49826 12.0984 7.49826H17.5827C17.9702 7.49826 18.1313 7.9941 17.8178 8.22186L13.3809 11.4454C13.2407 11.5473 13.1821 11.7278 13.2356 11.8926L14.9304 17.1085C15.0501 17.477 14.6283 17.7835 14.3148 17.5557L9.87797 14.3321C9.73778 14.2303 9.54794 14.2303 9.40774 14.3321L4.97089 17.5557C4.6574 17.7835 4.23561 17.477 4.35535 17.1085L6.05008 11.8926C6.10363 11.7278 6.04497 11.5473 5.90477 11.4454L1.46791 8.22186C1.15443 7.9941 1.31554 7.49826 1.70303 7.49826H7.18728C7.36057 7.49826 7.51416 7.38667 7.56771 7.22186L9.26243 2.00602Z" fill="#FFB800"/>
<path d="M34.9773 2.00602C35.097 1.6375 35.6184 1.6375 35.7381 2.00603L37.4329 7.22186C37.4864 7.38667 37.64 7.49826 37.8133 7.49826H43.2975C43.685 7.49826 43.8461 7.9941 43.5326 8.22186L39.0958 11.4454C38.9556 11.5473 38.8969 11.7278 38.9505 11.8926L40.6452 17.1085C40.7649 17.477 40.3432 17.7835 40.0297 17.5557L35.5928 14.3321C35.4526 14.2303 35.2628 14.2303 35.1226 14.3321L30.6857 17.5557C30.3722 17.7835 29.9505 17.477 30.0702 17.1085L31.7649 11.8926C31.8185 11.7278 31.7598 11.5473 31.6196 11.4454L27.1828 8.22186C26.8693 7.9941 27.0304 7.49826 27.4179 7.49826H32.9021C33.0754 7.49826 33.229 7.38667 33.2826 7.22186L34.9773 2.00602Z" fill="#FFB800"/>
<path d="M59.405 2.00602C59.5248 1.6375 60.0461 1.6375 60.1659 2.00603L61.8606 7.22186C61.9141 7.38667 62.0677 7.49826 62.241 7.49826H67.7253C68.1128 7.49826 68.2739 7.9941 67.9604 8.22186L63.5235 11.4454C63.3833 11.5473 63.3247 11.7278 63.3782 11.8926L65.0729 17.1085C65.1927 17.477 64.7709 17.7835 64.4574 17.5557L60.0205 14.3321C59.8804 14.2303 59.6905 14.2303 59.5503 14.3321L55.1135 17.5557C54.8 17.7835 54.3782 17.477 54.4979 17.1085L56.1927 11.8926C56.2462 11.7278 56.1875 11.5473 56.0473 11.4454L51.6105 8.22186C51.297 7.9941 51.4581 7.49826 51.8456 7.49826H57.3299C57.5032 7.49826 57.6567 7.38667 57.7103 7.22186L59.405 2.00602Z" fill="#FFB800"/>
<path d="M83.8347 2.00602C83.9544 1.6375 84.4758 1.6375 84.5955 2.00603L86.2903 7.22186C86.3438 7.38667 86.4974 7.49826 86.6707 7.49826H92.155C92.5424 7.49826 92.7036 7.9941 92.3901 8.22186L87.9532 11.4454C87.813 11.5473 87.7544 11.7278 87.8079 11.8926L89.5026 17.1085C89.6224 17.477 89.2006 17.7835 88.8871 17.5557L84.4502 14.3321C84.31 14.2303 84.1202 14.2303 83.98 14.3321L79.5432 17.5557C79.2297 17.7835 78.8079 17.477 78.9276 17.1085L80.6223 11.8926C80.6759 11.7278 80.6172 11.5473 80.477 11.4454L76.0402 8.22186C75.7267 7.9941 75.8878 7.49826 76.2753 7.49826H81.7596C81.9328 7.49826 82.0864 7.38667 82.14 7.22186L83.8347 2.00602Z" fill="#FFB800"/>
<path d="M105.758 7.37637L107.358 2.45324L108.957 7.37637C109.078 7.74719 109.423 7.99826 109.813 7.99826H114.99L110.802 11.0409C110.486 11.2701 110.354 11.6763 110.475 12.0471L112.075 16.9703L107.887 13.9276C107.571 13.6984 107.144 13.6984 106.829 13.9276L102.641 16.9703L104.24 12.0471C104.361 11.6763 104.229 11.2701 103.914 11.0409L99.7256 7.99826H104.902C105.292 7.99826 105.638 7.74719 105.758 7.37637Z" fill="#FFB800" stroke="#FFB800"/>
<mask id="mask0_918_1514" style="mask-type:alpha" maskUnits="userSpaceOnUse" x="99" y="1" width="17" height="17">
<path d="M105.758 7.37637L107.358 2.45324L108.957 7.37637C109.078 7.74719 109.423 7.99826 109.813 7.99826H114.99L110.802 11.0409C110.486 11.2701 110.354 11.6763 110.475 12.0471L112.075 16.9703L107.887 13.9276C107.571 13.6984 107.144 13.6984 106.829 13.9276L102.641 16.9703L104.24 12.0471C104.361 11.6763 104.229 11.2701 103.914 11.0409L99.7256 7.99826H104.902C105.292 7.99826 105.638 7.74719 105.758 7.37637Z" fill="#FFB800" stroke="#FFB800"/>
</mask>
<g mask="url(#mask0_918_1514)">
<rect x="108" width="9" height="19" fill="#D9D9D9"/>
</g>
</svg>
