<svg width="20" height="21" viewBox="0 0 20 21" fill="none" xmlns="http://www.w3.org/2000/svg">
<path d="M8.75808 7.37637L10.3577 2.45324L11.9573 7.37637C12.0778 7.74719 12.4234 7.99826 12.8133 7.99826H17.9898L13.8019 11.0409C13.4865 11.2701 13.3545 11.6763 13.475 12.0471L15.0746 16.9703L10.8867 13.9276C10.5713 13.6984 10.1441 13.6984 9.8287 13.9276L5.64083 16.9703L7.24045 12.0471C7.36094 11.6763 7.22895 11.2701 6.91351 11.0409L2.72564 7.99826H7.90213C8.29203 7.99826 8.63759 7.74719 8.75808 7.37637Z" fill="#FFB800" stroke="#FFB800"/>
<mask id="mask0_918_1520" style="mask-type:alpha" maskUnits="userSpaceOnUse" x="2" y="1" width="17" height="17">
<path d="M8.75808 7.37637L10.3577 2.45324L11.9573 7.37637C12.0778 7.74719 12.4234 7.99826 12.8133 7.99826H17.9898L13.8019 11.0409C13.4865 11.2701 13.3545 11.6763 13.475 12.0471L15.0746 16.9703L10.8867 13.9276C10.5713 13.6984 10.1441 13.6984 9.8287 13.9276L5.64083 16.9703L7.24045 12.0471C7.36094 11.6763 7.22895 11.2701 6.91351 11.0409L2.72564 7.99826H7.90213C8.29203 7.99826 8.63759 7.74719 8.75808 7.37637Z" fill="#FFB800" stroke="#FFB800"/>
</mask>
<g mask="url(#mask0_918_1520)">
<rect x="11" width="9" height="19" fill="#D9D9D9"/>
</g>
</svg>
