<svg width="17" height="17" viewBox="0 0 17 17" fill="none" xmlns="http://www.w3.org/2000/svg">
<path d="M8.26243 1.00602C8.38218 0.6375 8.90354 0.637501 9.02328 1.00603L10.718 6.22186C10.7716 6.38667 10.9251 6.49826 11.0984 6.49826H16.5827C16.9702 6.49826 17.1313 6.9941 16.8178 7.22186L12.3809 10.4454C12.2407 10.5473 12.1821 10.7278 12.2356 10.8926L13.9304 16.1085C14.0501 16.477 13.6283 16.7835 13.3148 16.5557L8.87797 13.3321C8.73778 13.2303 8.54794 13.2303 8.40774 13.3321L3.97089 16.5557C3.6574 16.7835 3.23561 16.477 3.35535 16.1085L5.05008 10.8926C5.10363 10.7278 5.04497 10.5473 4.90477 10.4454L0.467914 7.22186C0.154428 6.9941 0.315539 6.49826 0.703029 6.49826H6.18728C6.36057 6.49826 6.51416 6.38667 6.56771 6.22186L8.26243 1.00602Z" fill="#FFB800"/>
</svg>
