<svg width="22" height="21" viewBox="0 0 22 21" fill="none" xmlns="http://www.w3.org/2000/svg">
<path d="M5.00007 16H17.0001M5.00007 12.87C3.98603 12.6522 3.09621 12.0491 2.51832 11.1879C1.94043 10.3267 1.71964 9.27463 1.90255 8.25373C2.08546 7.23283 2.65775 6.32288 3.4987 5.71585C4.33965 5.10881 5.38351 4.85215 6.41007 5C6.6627 4.42663 7.01862 3.90462 7.46007 3.46C7.92453 2.99436 8.47629 2.62494 9.08374 2.37287C9.69119 2.12081 10.3424 1.99106 11.0001 1.99106C11.6577 1.99106 12.309 2.12081 12.9164 2.37287C13.5239 2.62494 14.0756 2.99436 14.5401 3.46C14.9815 3.90462 15.3374 4.42663 15.5901 5C16.6166 4.85215 17.6605 5.10881 18.5014 5.71585C19.3424 6.32288 19.9147 7.23283 20.0976 8.25373C20.2805 9.27463 20.0597 10.3267 19.4818 11.1879C18.9039 12.0491 18.0141 12.6522 17.0001 12.87V20H5.00007V12.87Z" stroke="white" stroke-width="2" stroke-linecap="round" stroke-linejoin="round"/>
</svg>
